<svg xmlns="http://www.w3.org/2000/svg" version="1.1" xmlns:xlink="http://www.w3.org/1999/xlink" width="500" height="500"><svg width="500" height="500" viewBox="0 0 500 500" fill="none" xmlns="http://www.w3.org/2000/svg">
<path d="M106.812 218.83H54.8723L81.3234 147.951L106.812 218.83ZM67.2311 276.836C46.3655 275.873 39.5601 260.08 51.4696 228.3L53.1709 223.677H108.738L118.464 250.867C124.531 267.848 120.39 276.098 106.555 276.836V279.019H176.952V276.836C166.519 276.098 157.306 266.404 151.239 250.385L97.085 107.183H92.2378L43.9579 234.592C32.3053 264.927 20.6526 275.617 9 276.836V279.019H67.2311V276.836ZM234.236 113.25H245.889C275.743 113.25 287.62 130.007 287.62 157.646C287.62 186.055 273.046 202.073 243.192 202.073H234.236V113.25ZM254.364 276.836C244.188 275.873 234.236 271.732 234.236 254.976V206.439H251.956L294.907 279.019H343.701V276.836C334.455 276.098 322.803 267.623 313.59 252.087L283.254 201.592C306.078 193.599 319.657 176.36 319.657 155.238C319.657 130.231 296.833 109.109 253.625 109.109H183.742V111.292C193.436 112.287 203.869 116.171 203.869 132.896V254.976C203.869 271.732 193.436 275.873 183.742 276.836V279.019H254.364V276.836ZM466.984 231.189C466.984 172.476 372.319 179.763 372.319 138C372.319 122.238 384.71 109.109 407.758 109.109C430.582 109.109 444.899 124.903 449.265 155.238L452.41 155.72L460.917 117.134C447.338 109.366 428.142 105 410.198 105C372.319 105 354.117 127.085 354.117 152.092C354.117 212.988 442.973 197.483 442.973 247.239C442.973 264.221 432.283 279.019 407.533 279.019C380.825 279.019 369.654 259.117 364.069 225.86L360.923 225.379L351.196 269.806C365.288 276.58 385.448 283.16 405.832 283.16C441.496 283.16 466.984 259.598 466.984 231.189Z" fill="black"></path>
<path d="M8.99999 303.705H491.185Z" fill="black"></path>
<path d="M8.99999 303.705H491.185" stroke="black" stroke-width="1.33333" stroke-miterlimit="10"></path>
<path d="M54.8402 374.327C54.8402 351.086 17.3462 353.943 17.3462 337.411C17.3462 331.183 22.2577 325.983 31.3744 325.983C40.4268 325.983 46.0766 332.243 47.81 344.248L49.062 344.441L52.4326 329.161C47.0396 326.079 39.4638 324.346 32.3374 324.346C17.3462 324.346 10.1556 333.109 10.1556 342.996C10.1556 367.136 45.3062 360.973 45.3062 380.683C45.3062 387.392 41.1009 393.267 31.2781 393.267C20.7168 393.267 16.2869 385.37 14.0719 372.208L12.82 372.016L8.99999 389.607C14.5535 392.304 22.5466 394.904 30.6039 394.904C44.7284 394.904 54.8402 385.562 54.8402 374.327ZM132.717 369.416H112.14L122.605 341.359L132.717 369.416ZM117.052 392.4C108.77 392.015 106.073 385.755 110.792 373.171L111.466 371.342H133.487L137.307 382.128C139.715 388.837 138.078 392.111 132.621 392.4V393.267H160.484V392.4C156.343 392.111 152.684 388.259 150.276 381.935L128.865 325.213H126.939L107.807 375.675C103.184 387.681 98.5937 391.918 93.9712 392.4V393.267H117.052V392.4ZM221.629 335.517C221.629 328.872 225.738 327.235 230.071 326.85V325.983H201.63V326.85C205.482 327.235 209.591 328.872 209.591 335.517V383.765C209.591 390.377 205.482 392.015 201.63 392.4V393.267H253.73L256.105 373.364H254.693C251.9 385.37 240.151 391.629 230.071 391.629H221.629V335.517ZM334.183 395C353.572 395 368.852 379.431 368.852 359.721C368.852 339.915 354.342 324.25 334.472 324.25C315.05 324.25 299.674 339.915 299.674 359.528C299.674 379.335 314.28 395 334.183 395ZM334.568 393.363C324.745 393.363 313.317 384.535 313.317 359.24C313.317 336.095 323.686 325.887 333.701 325.887C343.685 325.887 355.016 335.132 355.016 360.203C355.016 383.283 345.129 393.363 334.568 393.363ZM469.312 394.518L469.6 341.745C469.6 331.376 473.164 327.139 480.001 326.85V325.983H455.765V326.85C462.699 327.235 467.097 332.05 467.193 341.745L467.386 374.616L430.598 325.983H412.429V326.85C418.592 327.716 422.701 333.783 422.605 343.863L422.316 377.312C422.219 389.222 417.725 392.111 411.947 392.4V393.267H437.114V392.4C430.405 392.015 424.723 388.066 424.723 377.409L424.627 337.796L467.578 394.518H469.312Z" fill="black"></path>
</svg><style>@media (prefers-color-scheme: light) { :root { filter: none; } }
@media (prefers-color-scheme: dark) { :root { filter: none; } }
</style></svg>